<?xml version="1.0" encoding="utf-8"?>
<!-- Generator: Adobe Illustrator 24.3.0, SVG Export Plug-In . SVG Version: 6.00 Build 0)  -->
<svg version="1.1" id="Layer_1" xmlns="http://www.w3.org/2000/svg" xmlns:xlink="http://www.w3.org/1999/xlink" x="0px" y="0px"
	 viewBox="0 0 141 140" style="enable-background:new 0 0 141 140;" xml:space="preserve">
<style type="text/css">
	.st0{fill:#FFFFFF;}
</style>
<g transform="translate(0.000000,140.000000) scale(0.100000,-0.100000)">
	<path class="st0" d="M4,1376c-9-24,15-96,68-208l51-107l-32-65C-16,779,0,512,130,316C309,49,630-60,933,45c99,34,172,80,252,160
		c206,206,261,508,139,775l-35,76l50,105c54,114,77,189,67,215c-11,29-82,10-207-54l-117-60l-33,20c-19,12-53,29-76,39l-41,18l14-34
		c26-64,11-169-33-217c-45-49-153-72-293-62l-89,7l28,41c49,72,50,68-15,61l-59-7l59,61c64,65,90,76,37,15c-18-20-31-37-29-39
		c2-1,36,2,76,8c40,5,75,7,79,3c4-3-13-27-37-51l-44-45h70c133,0,204,67,204,191c0,70-13,85-78,95c-140,23-296-1-424-64l-73-37
		l-124,63C77,1391,15,1406,4,1376z M469,976c87-46,192-205,172-259c-13-34-32-38-98-21c-115,31-213,15-324-52c-80-48-103-46-134,15
		c-56,110,20,280,146,328C280,1005,426,998,469,976z M1195,973c51-27,77-55,111-122c23-47,26-62,21-119c-9-116-57-147-143-93
		c-110,70-223,90-332,58c-100-30-125,5-77,107c35,74,100,144,160,173c43,21,61,24,135,20C1131,995,1166,988,1195,973z M759,563
		c-48-55-66-56-103-8l-27,35h77h77L759,563z M942,513c27-24,24-85-7-121c-53-64-179-98-299-81c-71,9-178,60-201,95
		c-20,31-23,78-5,99c25,31,64,20,195-53c16-8,31-9,47-3c15,6,31,5,42-1c26-14,54-4,115,42C888,534,914,539,942,513z"/>
	<path class="st0" d="M361,913c-1-10-4-37-7-61c-5-36-3-47,16-67c35-38,80-48,145-35c30,6,59,9,65,5c5-3,10-4,10-2
		c0,3-48,41-217,169C365,929,361,926,361,913z"/>
	<path class="st0" d="M959,849c-123-95-132-104-102-95c11,4,41,2,66-5c84-21,159,25,159,96c0,20-5,42-10,47c-6,6-8,17-5,24
		c3,8,3,14,1,14C1065,930,1017,894,959,849z"/>
	<path class="st0" d="M469,476c-3-3-3-21-1-41c4-33,6-35,41-35c20,0,58-11,85-25c63-32,146-34,194-5c18,11,45,20,60,20
		c59,0,72,9,72,52c0,41-21,50-29,12c-4-24-19-34-53-34c-15,0-42-9-60-20c-47-29-121-27-177,5c-23,14-56,25-71,25c-22,0-29,5-32,22
		C495,473,479,486,469,476z"/>
</g>
</svg>
