<svg width="260" height="260" viewBox="0 0 260 260" fill="none" xmlns="http://www.w3.org/2000/svg">
<path fill-rule="evenodd" clip-rule="evenodd" d="M160.83 94.0108C152.534 86.8942 141.761 82.5882 130 82.5882C118.239 82.5882 107.466 86.8942 99.1702 94.0133L88.8369 83.6799C99.7951 73.9325 114.216 68 130 68C145.784 68 160.207 73.9325 171.163 83.6775L160.83 94.0108ZM177.412 130C177.412 141.76 173.106 152.534 165.989 160.83L176.323 171.163C186.067 160.207 192 145.784 192 130C192 114.215 186.067 99.7926 176.32 88.8368L165.987 99.1701C173.106 107.466 177.412 118.239 177.412 130ZM89.8824 130C89.8824 107.879 107.879 89.8824 130 89.8824C152.121 89.8824 170.118 107.879 170.118 130C170.118 152.121 152.121 170.118 130 170.118C107.879 170.118 89.8824 152.121 89.8824 130ZM133.367 155.474L150.56 114.211C151.129 112.847 150.82 111.276 149.774 110.231C148.729 109.185 147.156 108.874 145.792 109.443L104.529 126.635C103.09 127.233 102.192 128.68 102.292 130.236C102.392 131.792 103.469 133.11 104.971 133.521L121.872 138.131L126.482 155.031C126.893 156.534 128.211 157.611 129.767 157.71C129.847 157.715 129.925 157.718 130.002 157.718C131.466 157.718 132.799 156.838 133.367 155.474ZM128.359 134.197C128.021 132.952 127.046 131.979 125.801 131.639L117.143 129.276L140.418 119.579L130.72 142.852L128.359 134.197ZM82.5882 130C82.5882 118.239 86.8942 107.466 94.0108 99.1701L83.6775 88.8368C73.9325 99.7926 68 114.215 68 130C68 145.784 73.9325 160.205 83.6799 171.163L94.0133 160.83C86.8942 152.534 82.5882 141.76 82.5882 130ZM99.1702 165.989C107.466 173.106 118.239 177.412 130 177.412C141.761 177.412 152.534 173.106 160.83 165.987L171.163 176.32C160.207 186.067 145.784 192 130 192C114.216 192 99.7926 186.067 88.8369 176.323L99.1702 165.989Z" fill="#26a6b0"/>
<circle cx="130" cy="130" r="129" stroke="#26a6b0" stroke-width="2" stroke-dasharray="30 30"/>
</svg>
