<?xml version="1.0" encoding="utf-8"?>
<!-- Generator: Adobe Illustrator 23.0.1, SVG Export Plug-In . SVG Version: 6.00 Build 0)  -->
<svg width="63" height="63" version="1.1" id="Layer_1" xmlns="http://www.w3.org/2000/svg" xmlns:xlink="http://www.w3.org/1999/xlink" x="0px" y="0px"
	 viewBox="0 0 63 63" style="enable-background:new 0 0 63 63;" xml:space="preserve">
<style type="text/css">
	.st0{fill:#6851fe;}
	.st1{clip-path:url(#SVGID_2_);}
	.st2{fill:#16161A;}
</style>
<path class="st0" d="M48.9,27.7l2.1-2.2c0.7-0.7,0.6-1.9-0.1-2.6c-0.7-0.7-1.9-0.6-2.6,0.1l-1.4,1.5v-6.6c0-1-0.8-1.8-1.8-1.8h-9.5
	C34.7,7,27.1,0,17.9,0C8,0,0,8,0,17.9c0,8.4,5.9,15.5,13.8,17.4l-2.3,2.2c-0.7,0.7-0.8,1.8-0.1,2.6c0.7,0.7,1.8,0.8,2.6,0.1l2.1-2v7
	c0,1,0.8,1.8,1.8,1.8h9.5C28.3,56,35.9,63,45.1,63C55,63,63,55,63,45.1C63,36.6,57,29.4,48.9,27.7z M27.4,43.3h-7.7v-4.8l1.4,1.5
	c0.4,0.4,0.8,0.6,1.3,0.6c0.4,0,0.9-0.2,1.2-0.5c0.7-0.7,0.8-1.8,0.1-2.6l-2.1-2.2c7.5-1.6,13.2-7.9,14-15.6h7.7v5.2l-2.1-2
	c-0.7-0.7-1.9-0.7-2.6,0.1c-0.7,0.7-0.7,1.9,0.1,2.6l2.3,2.2C33.7,29.4,28.1,35.7,27.4,43.3z M49.7,43.3c1,0,1.8,0.8,1.8,1.8v2.7
	c0,2.6-2,4.7-4.5,4.8v1.6c0,1-0.8,1.8-1.8,1.8c-1,0-1.8-0.8-1.8-1.8v-1.6h-2.7c-1,0-1.8-0.8-1.8-1.8c0-1,0.8-1.8,1.8-1.8h6.1
	c0.7,0,1.2-0.5,1.2-1.2v-0.8h-7.3c-1,0-1.8-0.8-1.8-1.8v-2.7c0-2.6,2-4.7,4.5-4.8V36c0-1,0.8-1.8,1.8-1.8c1,0,1.8,0.8,1.8,1.8v1.6
	h2.7c1,0,1.8,0.8,1.8,1.8c0,1-0.8,1.8-1.8,1.8h-6.1c-0.7,0-1.2,0.5-1.2,1.2v0.8H49.7z"/>
<g>
	<defs>
		<rect id="SVGID_1_" x="9" y="8" width="18" height="22"/>
	</defs>
	<clipPath id="SVGID_2_">
		<use xlink:href="#SVGID_1_"  style="overflow:visible;"/>
	</clipPath>
	<g class="st1">
		<path class="st2" d="M24.8,13.9c-0.1-0.8-0.3-1.6-0.7-2.3c-1.2-2.1-2.9-3.2-5.2-3.5c-1.3-0.2-2.6,0-3.8,0.6
			c-1.9,0.9-3.2,2.3-3.7,4.3c-0.1,0.4-0.2,0.7-0.2,1.1c0,0-0.1,0-0.1,0c-0.4-0.1-0.8-0.1-1.2-0.1c-0.5,0.1-0.9,0.5-0.8,1
			c0,0.3,0.1,0.5,0.2,0.8c0.1,0.2,0.2,0.4,0.3,0.5c0.4,0.6,0.8,1.2,1.2,1.8c0.2,0.2,0.3,0.5,0.3,0.8c0,0.5,0,1-0.1,1.5
			c-0.1,0.7,0,1.4,0.1,2.1c0.1,0.8,0.5,1.5,0.8,2.2c0,0,0,0.1,0,0.1c0.1,0.1,0.1,0.1,0.2,0c0.1-0.1,0.1-0.2,0.2-0.3
			c0.1-0.2,0.3-0.2,0.4,0c0.1,0.1,0.2,0.3,0.3,0.4c0.1,0.3,0.2,0.6,0.3,0.8c0.1,0.2,0.2,0.4,0.3,0.6c0.1-0.1,0.2-0.2,0.3-0.3
			c0.2-0.2,0.4-0.1,0.6,0.1c0.1,0.1,0.1,0.2,0.2,0.4c0.2,0.4,0.4,0.8,0.6,1.3c0.1,0.3,0.3,0.5,0.5,0.8l0.1,0c0-0.1,0-0.1,0-0.2
			c0.1-0.2,0.1-0.5,0.2-0.7c0.2-0.5,0.7-0.6,1.1-0.2c0.2,0.2,0.3,0.4,0.4,0.7c0.3,0.6,0.4,1.2,0.5,1.8c0,0.1,0,0.2,0.1,0.2l0.1,0
			c0-0.1,0.1-0.1,0.1-0.2c0.2-0.5,0.5-1,0.7-1.4c0.1-0.3,0.4-0.4,0.7-0.3c0.1,0,0.2,0.1,0.3,0.1c0.1-0.5,0.5-0.9,0.8-1.3
			c0.3-0.3,0.5-0.2,0.7,0.1c0.1,0.1,0.1,0.2,0.1,0.3c0,0.1,0,0.1,0.1,0.2c0.1-0.3,0.2-0.5,0.3-0.7c0.1-0.3,0.2-0.6,0.3-0.9
			c0.1-0.5,0.3-1,0.6-1.4c0.1-0.2,0.4-0.2,0.6,0c0.1,0.1,0.1,0.2,0.2,0.3c0.1,0.1,0.2,0.3,0.2,0.4c0,0,0-0.1,0.1-0.1
			c0.6-0.9,1-2,1-3.2c0-0.9,0-1.8,0-2.7c0-0.5,0.1-0.9,0.4-1.3c0.5-0.6,0.9-1.2,1.3-1.8c0.2-0.2,0.3-0.5,0.3-0.8
			c0.1-0.5,0-0.9-0.5-1c-0.2-0.1-0.4-0.1-0.6-0.1C25.5,13.9,25.2,13.9,24.8,13.9z"/>
		<path class="st0" d="M20.8,14.9c0.9,0,1.4-0.6,1.3-1.5c-0.1-0.3-0.2-0.4-0.5-0.3c-0.4,0.1-0.8,0.3-1.2,0.5c-0.1,0-0.2,0.1-0.2,0.2
			c-0.2,0.3-0.2,0.5-0.1,0.8c0.1,0.3,0.3,0.3,0.5,0.3C20.7,14.9,20.8,14.9,20.8,14.9z M15.1,14.9c0.1,0,0.2,0,0.3,0
			c0.2,0,0.3-0.1,0.4-0.3c0.1-0.4,0-0.8-0.4-1c-0.4-0.2-0.7-0.3-1.1-0.5c-0.3-0.1-0.4,0-0.5,0.3C13.7,14.3,14.2,15,15.1,14.9
			L15.1,14.9z"/>
	</g>
</g>
</svg>
