<?xml version="1.0" encoding="utf-8"?>
<!-- Generator: Adobe Illustrator 24.3.0, SVG Export Plug-In . SVG Version: 6.00 Build 0)  -->
<svg version="1.1" xmlns="http://www.w3.org/2000/svg" xmlns:xlink="http://www.w3.org/1999/xlink" x="0px" y="0px"
	 viewBox="0 0 500 500" style="enable-background:new 0 0 500 500;" xml:space="preserve">
<style type="text/css">
	.st0{display:none;}
	.st1{display:inline;fill:#FFFFFF;}
	.st2{display:inline;fill:#3A4150;}
	.st3{fill:url(#SVGID_1_);}
	.st4{opacity:0.8;}
	.st5{fill:url(#SVGID_2_);}
	.st6{fill:url(#SVGID_3_);}
	.st7{fill:url(#SVGID_4_);}
	.st8{fill:url(#SVGID_5_);}
	.st9{fill:url(#SVGID_6_);}
	.st10{fill:url(#SVGID_7_);}
	.st11{fill:#FFFFFF;}
	.st12{display:none;fill:#FFFFFF;}
	.st13{font-family:'Poppins-Bold';}
	.st14{font-size:36.2478px;}
</style>
<g id="BACKGROUND" class="st0">
	<g>
		<rect x="-20.18" y="7.34" class="st1" width="500" height="500"/>
		<rect x="-20.18" y="238.3" class="st2" width="250" height="230.96"/>
		<rect x="229.82" y="238.3" class="st1" width="250" height="230.96"/>
		<rect x="-20.18" y="7.34" class="st1" width="250" height="230.96"/>
		<rect x="-36.59" y="7.34" class="st2" width="516.41" height="534.82"/>
	</g>
	<rect x="-2.99" y="-2.99" class="st2" width="505.99" height="505.99"/>
</g>
<g id="OBJECTS">
	<g id="Nuevo_símbolo">
	</g>
	<g id="Nuevo_símbolo_1">
	</g>
	<g id="Nuevo_símbolo_2">
	</g>
	<g id="Nuevo_símbolo_3">
	</g>
</g>
<g id="DESIGNED_BY_FREEPIK">
	<g>
		<g>
			<g>
				<linearGradient id="SVGID_1_" gradientUnits="userSpaceOnUse" x1="180.6352" y1="136.0194" x2="283.227" y2="282.1353">
					<stop  offset="0" style="stop-color:#A0FFFF"/>
					<stop  offset="0.5054" style="stop-color:#7FAEFB"/>
					<stop  offset="1" style="stop-color:#7F62FA"/>
				</linearGradient>
				<polygon class="st3" points="148.05,175.79 249.8,117.04 351.56,175.79 351.56,293.29 249.8,352.04 148.05,293.29 				"/>
			</g>
			<g class="st4">
				<g>
					<linearGradient id="SVGID_2_" gradientUnits="userSpaceOnUse" x1="249.8074" y1="175.7886" x2="351.5648" y2="175.7886">
						<stop  offset="0" style="stop-color:#FFFFFF;stop-opacity:0"/>
						<stop  offset="1" style="stop-color:#FFFFFF"/>
					</linearGradient>
					<polygon class="st5" points="249.81,234.54 351.56,175.79 249.81,117.04 					"/>
					<linearGradient id="SVGID_3_" gradientUnits="userSpaceOnUse" x1="249.8074" y1="293.29" x2="351.5648" y2="293.29">
						<stop  offset="0" style="stop-color:#FFFFFF;stop-opacity:0"/>
						<stop  offset="1" style="stop-color:#FFFFFF"/>
					</linearGradient>
					<polygon class="st6" points="249.81,234.54 351.56,293.29 249.81,352.04 					"/>
					<linearGradient id="SVGID_4_" gradientUnits="userSpaceOnUse" x1="347.1729" y1="234.5379" x2="246.9458" y2="234.5379">
						<stop  offset="0" style="stop-color:#FFFFFF;stop-opacity:0"/>
						<stop  offset="1" style="stop-color:#FFFFFF"/>
					</linearGradient>
					<polygon class="st7" points="351.56,175.79 351.56,293.29 249.81,234.54 					"/>
				</g>
				<linearGradient id="SVGID_5_" gradientUnits="userSpaceOnUse" x1="148.0503" y1="175.7886" x2="249.8074" y2="175.7886">
					<stop  offset="0" style="stop-color:#FFFFFF;stop-opacity:0"/>
					<stop  offset="1" style="stop-color:#FFFFFF"/>
				</linearGradient>
				<polygon class="st8" points="249.81,234.54 148.05,175.79 249.81,117.04 				"/>
				<linearGradient id="SVGID_6_" gradientUnits="userSpaceOnUse" x1="148.0503" y1="293.29" x2="249.8074" y2="293.29">
					<stop  offset="0" style="stop-color:#FFFFFF;stop-opacity:0"/>
					<stop  offset="1" style="stop-color:#FFFFFF"/>
				</linearGradient>
				<polygon class="st9" points="249.81,234.54 148.05,293.29 249.81,352.04 				"/>
				<linearGradient id="SVGID_7_" gradientUnits="userSpaceOnUse" x1="249.4032" y1="234.5379" x2="145.9274" y2="234.5379">
					<stop  offset="0" style="stop-color:#FFFFFF;stop-opacity:0"/>
					<stop  offset="1" style="stop-color:#FFFFFF"/>
				</linearGradient>
				<polygon class="st10" points="148.05,175.79 148.05,293.29 249.81,234.54 				"/>
			</g>
		</g>
		<g>
			<path class="st11" d="M299.41,216.21c0-7.5-5.92-13.57-13.42-13.57c-7.5,0-13.06,6.07-13.06,13.57c0,6.69,5.17,12.21,11.71,13.34
				v25.63l-35.58,35.99c-0.45,0.45-0.37,1.06-0.37,1.69v68.87c-6.54,1.13-11.96,6.65-11.96,13.33c0,7.5,5.7,13.58,13.2,13.58
				c7.51,0,13.4-6.08,13.4-13.58c0-6.68-4.83-12.2-11.37-13.33v-67.88l35.58-35.99c0.45-0.45,0.37-1.06,0.37-1.69v-26.62
				C294.43,228.42,299.41,222.9,299.41,216.21z"/>
			<path class="st11" d="M321.5,106.54c-3.74-6.5-12.04-8.73-18.53-4.98c-5.91,3.41-8.23,10.55-5.81,16.7l-27.85,17.13
				c-0.55,0.32-0.94,0.84-1.11,1.44l-13.24,49.07l-32.42,18.33c-4.14-5-11.39-6.48-17.21-3.12c-6.5,3.75-8.73,12.05-4.97,18.55
				c3.75,6.5,12.04,8.73,18.55,4.98c5.75-3.32,8.13-10.2,6.01-16.25l33.28-18.81c0.56-0.32,0.97-0.84,1.13-1.46l13.24-49.09
				l27.07-16.66c4.2,4.7,11.24,5.99,16.91,2.71C323.03,121.34,325.26,113.04,321.5,106.54z"/>
			<path class="st11" d="M261.29,230.26c-3.76-6.49-12.05-8.72-18.56-4.96c-5.82,3.37-8.16,10.37-5.89,16.47l-32.08,18.92
				l-32.09-8.46c-0.61-0.16-1.26-0.08-1.81,0.24l-37.98,19.45c-4.07-5.37-11.56-7.03-17.55-3.57c-6.49,3.75-8.71,12.06-4.95,18.54
				c3.75,6.51,12.05,8.72,18.54,4.97c5.59-3.22,7.97-9.79,6.17-15.7l37.3-19.06l32.11,8.46c0.61,0.17,1.28,0.08,1.82-0.24
				l32.94-19.43c4.18,4.86,11.33,6.24,17.07,2.91C262.83,245.06,265.04,236.76,261.29,230.26z"/>
		</g>
	</g>
	<text transform="matrix(1.0348 0 0 1 138.5436 314.0924)" class="st12 st13 st14">LaunchBOX</text>
</g>
</svg>
