<svg width="573" height="46" viewBox="0 0 573 46" fill="none" xmlns="http://www.w3.org/2000/svg">
<path d="M148.556 24.2841V21.5H114.778V24.2841H148.556Z" fill="white" stroke="#1E2835"/>
<path d="M79.3497 24.2841V21.5H45.5717V24.2841H79.3497Z" fill="white" stroke="#1E2835"/>
<path d="M202.222 24.3352H220.57V21.5H202.222H183.873V24.3352H202.222Z" fill="white" stroke="#1E2835"/>
<path d="M289.871 24.2841V21.5H256.093V24.2841H289.871Z" fill="white" stroke="#1E2835"/>
<path d="M343.536 24.3352H361.885V21.5H343.536H325.188V24.3352H343.536Z" fill="white" stroke="#1E2835"/>
<path d="M431.185 24.2841V21.5H397.407V24.2841H431.185Z" fill="white" stroke="#1E2835"/>
<path d="M484.851 24.3352H503.2V21.5H484.851H466.502V24.3352H484.851Z" fill="white" stroke="#1E2835"/>
<path d="M572.5 24.2841V21.5H538.722V24.2841H572.5Z" fill="white" stroke="#1E2835"/>
<circle cx="23" cy="23" r="22" fill="#1E2835" stroke="#26a6b0"/>
<circle cx="23" cy="23" r="10" fill="#26a6b0"/>
</svg>
